<mxfile host="65bd71144e">
    <diagram id="wErgKmHj8z3coINsLL0f" name="Page-1">
        <mxGraphModel dx="852" dy="548" grid="1" gridSize="10" guides="1" tooltips="1" connect="1" arrows="1" fold="1" page="1" pageScale="1" pageWidth="850" pageHeight="1100" math="0" shadow="0">
            <root>
                <mxCell id="0"/>
                <mxCell id="1" parent="0"/>
                <mxCell id="24" value="" style="group" vertex="1" connectable="0" parent="1">
                    <mxGeometry x="40" y="40" width="320" height="320" as="geometry"/>
                </mxCell>
                <mxCell id="2" value="Deployment Target" style="verticalAlign=top;align=left;shape=cube;size=10;direction=south;fontStyle=0;html=1;boundedLbl=1;spacingLeft=5;fillColor=none;fontColor=#006EAF;strokeColor=#006EAF;" vertex="1" parent="24">
                    <mxGeometry width="320" height="320" as="geometry"/>
                </mxCell>
                <mxCell id="23" value="" style="group" vertex="1" connectable="0" parent="24">
                    <mxGeometry x="10" y="40" width="290" height="270" as="geometry"/>
                </mxCell>
                <mxCell id="4" value="«service»&lt;br&gt;&lt;span&gt;Service 1&lt;/span&gt;" style="html=1;dropTarget=0;fillColor=none;fontColor=#006EAF;strokeColor=#006EAF;fontStyle=0" vertex="1" parent="23">
                    <mxGeometry width="120" height="60" as="geometry"/>
                </mxCell>
                <mxCell id="5" value="" style="shape=module;jettyWidth=8;jettyHeight=4;fillColor=none;fontColor=#006EAF;strokeColor=#006EAF;fontStyle=0" vertex="1" parent="4">
                    <mxGeometry x="1" width="20" height="20" relative="1" as="geometry">
                        <mxPoint x="-27" y="7" as="offset"/>
                    </mxGeometry>
                </mxCell>
                <mxCell id="6" value="Sidecar" style="shape=folder;fontStyle=0;tabWidth=110;tabHeight=30;tabPosition=left;html=1;boundedLbl=1;labelInHeader=1;container=1;collapsible=0;fillColor=none;fontColor=#006EAF;strokeColor=#006EAF;" vertex="1" parent="23">
                    <mxGeometry y="90" width="290" height="180" as="geometry"/>
                </mxCell>
                <mxCell id="7" value="" style="html=1;strokeColor=none;resizeWidth=1;resizeHeight=1;fillColor=none;part=1;connectable=0;allowArrows=0;deletable=0;fontColor=#006EAF;fontStyle=0" vertex="1" parent="6">
                    <mxGeometry width="290" height="153" relative="1" as="geometry">
                        <mxPoint y="30" as="offset"/>
                    </mxGeometry>
                </mxCell>
                <mxCell id="8" value="«component»&lt;br&gt;&lt;span&gt;Logging&lt;/span&gt;" style="html=1;dropTarget=0;fillColor=none;fontColor=#006EAF;strokeColor=#006EAF;fontStyle=0" vertex="1" parent="6">
                    <mxGeometry x="10" y="40" width="130" height="60" as="geometry"/>
                </mxCell>
                <mxCell id="9" value="" style="shape=module;jettyWidth=8;jettyHeight=4;fillColor=none;fontColor=#006EAF;strokeColor=#006EAF;fontStyle=0" vertex="1" parent="8">
                    <mxGeometry x="1" width="20" height="20" relative="1" as="geometry">
                        <mxPoint x="-27" y="7" as="offset"/>
                    </mxGeometry>
                </mxCell>
                <mxCell id="12" value="«component»&lt;br&gt;&lt;span&gt;Monitoring&lt;/span&gt;" style="html=1;dropTarget=0;fillColor=none;fontColor=#006EAF;strokeColor=#006EAF;fontStyle=0" vertex="1" parent="6">
                    <mxGeometry x="150" y="40" width="130" height="60" as="geometry"/>
                </mxCell>
                <mxCell id="13" value="" style="shape=module;jettyWidth=8;jettyHeight=4;fillColor=none;fontColor=#006EAF;strokeColor=#006EAF;fontStyle=0" vertex="1" parent="12">
                    <mxGeometry x="1" width="20" height="20" relative="1" as="geometry">
                        <mxPoint x="-27" y="7" as="offset"/>
                    </mxGeometry>
                </mxCell>
                <mxCell id="10" value="«component»&lt;br&gt;&lt;span&gt;Configuration&lt;/span&gt;" style="html=1;dropTarget=0;fillColor=none;fontColor=#006EAF;strokeColor=#006EAF;fontStyle=0" vertex="1" parent="6">
                    <mxGeometry x="10" y="110" width="130" height="60" as="geometry"/>
                </mxCell>
                <mxCell id="11" value="" style="shape=module;jettyWidth=8;jettyHeight=4;fillColor=none;fontColor=#006EAF;strokeColor=#006EAF;fontStyle=0" vertex="1" parent="10">
                    <mxGeometry x="1" width="20" height="20" relative="1" as="geometry">
                        <mxPoint x="-27" y="7" as="offset"/>
                    </mxGeometry>
                </mxCell>
                <mxCell id="14" value="«component»&lt;br&gt;&lt;span&gt;Circuit Breaker&lt;/span&gt;" style="html=1;dropTarget=0;fillColor=none;fontColor=#006EAF;strokeColor=#006EAF;fontStyle=0" vertex="1" parent="6">
                    <mxGeometry x="150" y="110" width="130" height="60" as="geometry"/>
                </mxCell>
                <mxCell id="15" value="" style="shape=module;jettyWidth=8;jettyHeight=4;fillColor=none;fontColor=#006EAF;strokeColor=#006EAF;fontStyle=0" vertex="1" parent="14">
                    <mxGeometry x="1" width="20" height="20" relative="1" as="geometry">
                        <mxPoint x="-27" y="7" as="offset"/>
                    </mxGeometry>
                </mxCell>
                <mxCell id="21" style="edgeStyle=none;html=1;entryX=0;entryY=0;entryDx=55;entryDy=0;entryPerimeter=0;fontColor=#006EAF;startArrow=open;startFill=0;endArrow=open;endFill=0;fillColor=#1ba1e2;strokeColor=#006EAF;" edge="1" parent="23" source="4" target="6">
                    <mxGeometry relative="1" as="geometry"/>
                </mxCell>
                <mxCell id="19" value="Database" style="shape=cylinder3;whiteSpace=wrap;html=1;boundedLbl=1;backgroundOutline=1;size=15;fillColor=none;fontColor=#006EAF;strokeColor=#006EAF;fontStyle=0" vertex="1" parent="23">
                    <mxGeometry x="220" width="70" height="60" as="geometry"/>
                </mxCell>
                <mxCell id="20" style="edgeStyle=none;html=1;fontColor=#006EAF;startArrow=open;startFill=0;endArrow=open;endFill=0;fillColor=#1ba1e2;strokeColor=#006EAF;" edge="1" parent="23" source="4" target="19">
                    <mxGeometry relative="1" as="geometry"/>
                </mxCell>
            </root>
        </mxGraphModel>
    </diagram>
</mxfile>